<svg xmlns="http://www.w3.org/2000/svg" viewBox="0 0 16 16" style="enable-background:new 0 0 16 16" xml:space="preserve" class="w-4 h-4"><path d="M13.1 16H2.9c-.7 0-1.3-.6-1.3-1.3V1.4C1.6.7 2.2.1 2.9.1h5.2c.3 0 .7.1.9.4l5 5c.2.2.4.6.4.9v8.3c0 .7-.6 1.3-1.3 1.3zM2.9.6c-.4 0-.8.3-.8.8v13.3c0 .4.3.8.8.8h10.3c.4 0 .8-.3.8-.8V6.4c0-.2-.1-.4-.2-.5l-5-5C8.5.7 8.3.6 8.1.6H2.9z" class="fill-red-500" style="fill:#fd4233"/><path d="M12 10.1c0-.1-.1-.1-.1-.2-.2-.2-.5-.2-1.1-.3-.4 0-.8 0-1.3.1-.2 0-.4-.2-.5-.3-.5-.4-.8-1-1.1-1.7v-.2s.3-1.4.2-1.9v-.2c-.1-.1-.2-.3-.4-.3h-.1c-.3 0-.5.1-.6.3-.1.6 0 1.4.3 2.5v.2c-.2.5-.5 1-.7 1.5v.1c-.2.5-.5.9-.7 1.2l-.2.1-.4.2c-.7.4-1.2.9-1.2 1.3 0 .1 0 .3.1.3l.2.1c.1 0 .2.1.3.1.5 0 1.1-.6 1.9-2 .9-.3 2-.5 2.9-.7.7.4 1.6.7 2.1.7h.2c.1 0 .2-.1.2-.2v-.7zm-7.5 2.5c.1-.2.4-.7 1-1.2l.2-.2c-.6.9-1 1.3-1.2 1.4zm3.1-7.3c.2 0 .3.4.3.8s-.1.6-.2.8c-.1-.3-.1-.7-.1-1-.1 0-.1-.6 0-.6zm-.9 5.2.3-.6c.3-.5.5-1 .6-1.3.3.5.6.9 1 1.2.1 0 .1.1.2.1-.8.2-1.5.4-2.1.6zm5 0h-.3c-.3 0-.7-.1-1.2-.3h.5c.3 0 .4 0 .7.1.4 0 .4.1.3.2z" class="fill-red-500" style="fill:#ff402f"/></svg>